<?xml version="1.0" encoding="iso-8859-1"?>
<!-- Uploaded to: SVG Repo, www.svgrepo.com, Generator: SVG Repo Mixer Tools -->
<!DOCTYPE svg PUBLIC "-//W3C//DTD SVG 1.1//EN" "http://www.w3.org/Graphics/SVG/1.1/DTD/svg11.dtd">
<svg fill="#000000" version="1.1" id="Capa_1" xmlns="http://www.w3.org/2000/svg" xmlns:xlink="http://www.w3.org/1999/xlink" 
	 width="800px" height="800px" viewBox="0 0 611.996 611.996"
	 xml:space="preserve">
<g>
	<path d="M292.092,120.625h29.602v90.602h-29.602V120.625z M215.045,165.393l28.175,9.082l12.715-39.447l-28.175-9.082
		L215.045,165.393z M355.901,135.027l12.715,39.447l28.175-9.082l-12.715-39.447L355.901,135.027z M62.665,76.472
		c0,0-41.76,85.014,35.797,154.364c0,0,26.62-57.763,74.831-96.369C173.292,134.467,129.033,88.404,62.665,76.472z M438.66,134.467
		c48.211,38.606,74.831,96.369,74.831,96.369c77.557-69.35,35.797-154.364,35.797-154.364
		C482.92,88.404,438.66,134.467,438.66,134.467z M602.647,188.154c-9.099,26.983-24.811,51.746-46.765,73.754
		c3.477,6.564,7.57,15.592,10.385,25.936c8.089,29.709,2.148,55.816-17.175,75.498c-22.316,22.734-29.56,62.203-34.851,91.025
		c-3.035,16.527-5.429,29.584-9.998,38.719c-7.576,15.152-25.715,22.43-44.914,30.137c-19.062,7.652-40.665,16.324-51.925,32.506
		c-15.741,22.633-38.053,33.631-68.202,33.631c-7.868-0.006-15.134-0.695-21.55-1.303c-4.41-0.424-8.582-0.814-11.659-0.834
		c-3.077,0.02-7.243,0.418-11.653,0.834c-6.415,0.613-13.682,1.303-21.55,1.303c-30.149,0-52.461-11.004-68.202-33.631
		c-11.254-16.188-32.863-24.857-51.925-32.506c-19.199-7.707-37.332-14.984-44.908-30.137c-4.571-9.135-6.963-22.191-9.998-38.719
		c-12.533-68.285-25.43-81.426-34.851-91.02c-19.33-19.682-25.263-45.789-17.175-75.498c2.815-10.343,6.909-19.377,10.385-25.936
		c-21.954-22.008-37.666-46.777-46.771-73.754c-8.237-24.442-11.052-50.604-8.356-77.765c4.547-45.801,23.216-78.64,24.007-80.015
		l3.958-6.868L36.871,23c3.72-0.244,7.511-0.363,11.26-0.363c67.743,0,122.269,38.665,144.217,56.9
		c14.884-11.397,33.988-19.788,56.989-25.013c22.133-5.029,42.111-5.779,52.056-5.779c2.137,0,3.72,0.036,4.612,0.065
		c0.893-0.03,2.476-0.065,4.612-0.065c9.945,0,29.929,0.75,52.062,5.779c23.002,5.225,42.1,13.617,56.984,25.013
		c21.942-18.235,76.468-56.9,144.211-56.9c3.755,0,7.54,0.119,11.26,0.363l7.915,0.512L587,30.374
		c0.791,1.375,19.467,34.214,24.007,80.015C613.699,137.55,610.89,163.718,602.647,188.154z M377.546,545.664l-8.004-16.914
		l-62.393-15.652l-64.464,15.082l-8.855,16.818c9.486,10.271,21.567,14.752,38.969,14.752c6.469,0,12.712-0.594,18.753-1.166
		c5.124-0.488,9.962-0.945,14.396-0.963h0.054h0.059c4.434,0.018,9.277,0.475,14.401,0.963c6.041,0.572,12.283,1.166,18.747,1.166
		C356.229,559.752,368.155,555.461,377.546,545.664z M581.651,114.381c-2.631-28.197-11.683-51.11-16.771-62.131
		c-0.339-0.006-0.672-0.006-1.012-0.006c-38.518,0-72.606,15.444-94.417,28.405c-24.192,14.372-39.189,29.018-39.338,29.161
		l-10.559,10.385l-10.396-10.552c-11.914-12.129-29.763-20.96-53.044-26.251c-20.038-4.547-38.499-5.041-45.503-5.041
		c-2.257,0-3.666,0.042-4.047,0.06L306,78.436l-0.565-0.024c-0.375-0.012-1.785-0.06-4.047-0.06c-7.011,0-25.466,0.494-45.503,5.041
		c-23.287,5.285-41.135,14.116-53.05,26.251l-10.409,10.599l-10.558-10.45c-0.131-0.131-15.128-14.777-39.326-29.149
		c-21.817-12.956-55.906-28.405-94.417-28.405c-0.333,0-0.672,0.006-1.012,0.006c-5.082,11.01-14.14,33.922-16.765,62.131
		c-4.832,51.895,13.48,96.97,54.442,133.957l9.76,8.814l-7.606,10.73c-0.06,0.089-8.629,12.45-12.831,28.447
		c-5.047,19.206-1.797,34.338,9.921,46.278c24.704,25.16,34.202,61.768,40.183,92.262c-0.131-27.238-3.487-59.625-15.473-86.389
		c-8.302-18.551-15.943-46.206-5.184-72.635c6.725-16.521,17.586-24.698,18.806-25.573l17.312,24.013c0,0,0.071-0.048,0.202-0.149
		c-0.244,0.19-5.981,4.731-9.451,14.283c-4.797,13.212-3.005,29.352,5.326,47.967c25.341,56.609,17.741,130.576,14.479,153.775
		c4.38,1.951,9.105,3.85,13.45,5.594c14.908,5.986,32.315,12.973,47.045,24.305c1.089-1.959,2.303-3.82,3.636-5.576
		c-14.325-10.719-23.65-25.852-27.822-45.266c-5.201-24.191-1.904-51.234,1.279-77.385l0.363-2.998
		c2.779-22.883,17.419-39.625,30.34-54.402c6.719-7.676,13.057-14.932,17.604-22.596c5.13-8.647,7.653-20.289,7.183-31.107
		c-5.892,5.886-13.67,9.129-22.645,9.129c-3.428,0-7.052-0.482-10.772-1.422c-9.748-2.47-22.543-8.427-32.601-15.182
		c-7.094-4.761-12.391-9.611-15.902-14.533c-4.404,2.19-8.582,4.636-11.861,7.255l-18.461-23.139
		c13.319-10.623,32.786-17.705,42.391-20.77c1.827-0.738,3.648-1.339,5.38-1.815c8.897-2.452,18.645-2.97,25.251-2.97
		c8.665,0,16.914,0.881,23.21,2.476c3.761,0.952,7.153,2.22,10.177,3.767c14.718,5.808,25.495,17.318,31.185,33.381
		c7.707,21.758,4.868,49.901-7.07,70.028c-5.933,10.006-13.48,18.635-20.782,26.984c-11.563,13.223-21.555,24.65-23.234,38.475
		l-0.369,3.012c-6.689,54.889-8.016,89.727,29.685,103.045l45.408-12.039v-28.172c-8.635-2.363-19.11-5.225-27.531-11.861
		c-14.819-11.67-7.933-38.094-7.933-38.094s7.939,11.676,20.109,7.375c12.17-4.305,30.16,2.457,30.16,2.457
		s17.991-6.76,30.161-2.457s20.109-7.375,20.109-7.375s6.88,26.418-7.939,38.094c-8.421,6.631-18.889,9.498-27.53,11.861v28.15
		l45.414,12.045c1.064-0.375,2.101-0.773,3.106-1.184v-0.006h0.006c34.5-14.123,33.071-48.527,26.573-101.857l-0.369-3.01
		c-1.672-13.82-11.665-25.246-23.233-38.475c-7.303-8.352-14.849-16.98-20.782-26.984c-11.938-20.127-14.777-48.271-7.07-70.028
		c5.737-16.193,16.641-27.757,31.536-33.524c2.958-1.476,6.255-2.684,9.903-3.606c6.296-1.595,14.539-2.476,23.21-2.476
		c6.605,0,16.348,0.518,25.245,2.97c2.237,0.613,4.624,1.428,6.98,2.5c10.135,3.368,27.876,10.189,40.284,20.086l-18.461,23.151
		c-3.202-2.553-7.231-4.934-11.486-7.076c-3.511,4.856-8.766,9.653-15.771,14.354c-10.059,6.749-22.854,12.712-32.602,15.182
		c-3.72,0.946-7.344,1.422-10.771,1.422c-9.017,0-16.818-3.267-22.723-9.207c-0.481,10.831,2.041,22.502,7.178,31.161
		c4.547,7.666,10.891,14.92,17.604,22.598c12.92,14.777,27.566,31.523,30.34,54.4l0.363,2.994
		c3.184,26.148,6.481,53.191,1.279,77.385c-4.351,20.252-14.313,35.85-29.709,46.633c1.029,1.465,1.976,3,2.845,4.594
		c14.831-11.551,32.44-18.621,47.509-24.668c4.904-1.963,10.29-4.129,15.128-6.35c-3.309-24.018-10.485-97.018,14.587-153.018
		c8.332-18.617,10.123-34.751,5.326-47.968c-3.47-9.552-9.207-14.093-9.451-14.283c0.132,0.101,0.202,0.149,0.202,0.149
		l17.312-24.013c1.214,0.875,12.081,9.046,18.806,25.573c10.76,26.43,3.118,54.091-5.184,72.636
		c-10.611,23.709-14.469,51.824-15.295,76.867c6.124-28.334,16.045-60.145,38.225-82.736c11.867-12.086,15.057-27.459,9.736-46.984
		c-4.262-15.64-12.563-27.62-12.646-27.739l-7.605-10.73l9.76-8.814C568.166,211.352,586.484,166.283,581.651,114.381z
		 M389.562,254.725c0.863,3.416,1.958,4.725,2.273,5.047c0.214,0.214,0.476,0.482,1.791,0.482c0.964,0,2.172-0.179,3.499-0.512
		c7.749-1.958,18.05-7.314,24.87-12.081c-3.154-0.458-7.101-0.78-11.789-0.78c-6.106,0-12.063,0.589-15.938,1.571
		c-3.559,0.905-4.861,1.898-5.172,2.172C389.038,250.969,388.919,252.188,389.562,254.725z M225.194,250.629
		c-0.309-0.274-1.607-1.268-5.172-2.172c-3.874-0.988-9.831-1.571-15.938-1.571c-4.69,0-8.629,0.327-11.789,0.78
		c6.82,4.761,17.122,10.117,24.87,12.081c1.321,0.333,2.535,0.512,3.499,0.512c1.315,0,1.583-0.268,1.791-0.482
		c0.315-0.321,1.41-1.631,2.279-5.047C225.378,252.188,225.259,250.969,225.194,250.629z"/>
</g>
</svg>